<svg width="100" height="100" viewBox="0 0 100 100" fill="none" xmlns="http://www.w3.org/2000/svg">
<rect width="100" height="100" rx="50" fill="#EAEAE6"/>
<path d="M22.6274 67V32.8441H38.2961C41.5763 32.8441 44.2196 33.7199 46.226 35.4715C48.2642 37.2231 49.2833 39.516 49.2833 42.3504C49.2833 46.7135 47.1973 49.4682 43.0254 50.6147V50.758C44.6496 51.2357 45.8598 52.0001 46.6559 53.051C47.484 54.0701 48.0094 55.5988 48.2324 57.637C48.2961 58.4013 48.3597 59.309 48.4234 60.3599C48.519 61.379 48.5827 62.1911 48.6145 62.7962C48.6782 63.4013 48.7419 64.0064 48.8056 64.6115C48.9011 65.2166 49.0126 65.6943 49.14 66.0446C49.2992 66.3631 49.4903 66.5701 49.7132 66.6656V67H43.0731C42.9458 66.9363 42.8343 66.8248 42.7388 66.6656C42.6432 66.4745 42.5636 66.2197 42.4999 65.9013C42.4362 65.5828 42.3725 65.2643 42.3088 64.9459C42.277 64.5956 42.2292 64.1656 42.1655 63.6561C42.1337 63.1147 42.1018 62.6529 42.07 62.2707C42.0381 61.8567 41.9903 61.3312 41.9267 60.6943C41.8948 60.0255 41.863 59.5 41.8311 59.1179C41.5445 55.2325 39.3152 53.2899 35.1432 53.2899H29.5541V67H22.6274ZM29.5541 38.4332V47.9396H36.9108C38.726 47.9396 40.1114 47.5096 41.0668 46.6498C42.054 45.7899 42.5477 44.6593 42.5477 43.2581C42.5477 41.825 42.0859 40.6625 41.1623 39.7708C40.2388 38.8791 38.8853 38.4332 37.1018 38.4332H29.5541ZM52.3104 67V32.8441H76.7689V38.7199H59.2371V46.9364H74.0937V52.8599H59.2371V67H52.3104Z" fill="#0D3331"/>
</svg>
